In Roman-ruled Britain, a young Roman soldier endeavors to honor his father's memory by finding his lost legion's golden emblem.

Director:
Kevin Macdonald
Writers:
Jeremy Brock (screenplay), Rosemary Sutcliff (novel)
Stars:
Channing Tatum, Jamie Bell and Donald Sutherland 

Media info


General
Complete name                    : D:\upload torrents\The.Eagle.2011.BluRay rip.1080p.MKV.AVC.DTS 5.1-ACB-Team\The.Eagle.2011.BluRay rip.1080p.MKV.AVC.DTS 5.1-ACB-Team.mkv
Format                           : Matroska
File size                        : 11.4 GiB
Duration                         : 1h 54mn
Overall bit rate                 : 14.3 Mbps
Movie name                       : movie
Encoded date                     : UTC 2011-06-16 14:49:15
Writing application              : mkvmerge v3.2.0 ('Beginnings') built on Feb 12 2010 16:46:17
Writing library                  : libebml v0.7.9 + libmatroska v0.8.1

Video
ID                               : 1
Format                           : AVC
Format/Info                      : Advanced Video Codec
Format profile                   : High@L4.1
Format settings, CABAC           : Yes
Format settings, ReFrames        : 3 frames
Format settings, GOP             : M=4, N=16
Muxing mode                      : Container profile=Unknown@0.0
Codec ID                         : V_MPEG4/ISO/AVC
Duration                         : 1h 54mn
Bit rate mode                    : Variable
Bit rate                         : 12.5 Mbps
Nominal bit rate                 : 16.4 Mbps
Maximum bit rate                 : 35.0 Mbps
Width                            : 1 920 pixels
Height                           : 1 080 pixels
Display aspect ratio             : 16:9
Frame rate                       : 23.976 fps
Color space                      : YUV
Chroma subsampling               : 4:2:0
Bit depth                        : 8 bits
Scan type                        : Progressive
Bits/(Pixel*Frame)               : 0.251
Stream size                      : 9.96 GiB (87%)
Writing library                  : x264 core 115 r1936 7a9e08d
Encoding settings                : cabac=1 / ref=1 / deblock=1:0:0 / analyse=0x3:0x3 / me=dia / subme=1 / psy=1 / psy_rd=0.00:0.00 / mixed_ref=0 / me_range=16 / chroma_me=1 / trellis=0 / 8x8dct=1 / cqm=0 / deadzone=21,11 / fast_pskip=1 / chroma_qp_offset=0 / threads=3 / sliced_threads=0 / slices=4 / nr=0 / decimate=1 / interlaced=0 / bluray_compat=1 / constrained_intra=0 / bframes=3 / b_pyramid=1 / b_adapt=1 / b_bias=0 / direct=1 / weightb=1 / open_gop=0 / weightp=1 / keyint=24 / keyint_min=1 / scenecut=40 / intra_refresh=0 / rc_lookahead=0 / rc=abr / mbtree=0 / bitrate=16441 / ratetol=1.0 / qcomp=0.60 / qpmin=0 / qpmax=69 / qpstep=4 / vbv_maxrate=35000 / vbv_bufsize=30000 / nal_hrd=vbr / ip_ratio=1.10 / pb_ratio=1.10 / aq=1:1.00

Audio
ID                               : 2
Format                           : DTS
Format/Info                      : Digital Theater Systems
Codec ID                         : A_DTS
Duration                         : 1h 54mn
Bit rate mode                    : Constant
Bit rate                         : 1 510 Kbps
Channel(s)                       : 6 channels
Channel positions                : Front: L C R, Side: L R, LFE
Sampling rate                    : 48.0 KHz
Bit depth                        : 24 bits
Stream size                      : 1.20 GiB (11%)
Language                         : English

Text #1
ID                               : 3
Format                           : VobSub
Muxing mode                      : zlib
Codec ID                         : S_VOBSUB
Codec ID/Info                    : The same subtitle format used on DVDs
Language                         : English

Text #2
ID                               : 4
Format                           : VobSub
Muxing mode                      : zlib
Codec ID                         : S_VOBSUB
Codec ID/Info                    : The same subtitle format used on DVDs
Language                         : Spanish

Text #3
ID                               : 5
Format                           : VobSub
Muxing mode                      : zlib
Codec ID                         : S_VOBSUB
Codec ID/Info                    : The same subtitle format used on DVDs
Language                         : French

Text #4
ID                               : 6
Format                           : UTF-8
Codec ID                         : S_TEXT/UTF8
Codec ID/Info                    : UTF-8 Plain Text
Language                         : Dutch

Menu
00:00:00.000                     : en:00:00:00.000
00:04:52.125                     : en:00:04:52.125
00:08:42.897                     : en:00:08:42.897
00:14:47.970                     : en:00:14:47.970
00:22:29.639                     : en:00:22:29.639
00:27:16.760                     : en:00:27:16.760
00:32:06.299                     : en:00:32:06.299
00:37:39.674                     : en:00:37:39.674
00:43:12.339                     : en:00:43:12.339
00:50:17.597                     : en:00:50:17.597
00:55:47.010                     : en:00:55:47.010
01:02:08.641                     : en:01:02:08.641
01:05:25.337                     : en:01:05:25.337
01:11:17.773                     : en:01:11:17.773
01:16:07.187                     : en:01:16:07.187
01:21:41.187                     : en:01:21:41.187
01:26:12.000                     : en:01:26:12.000
01:34:38.172                     : en:01:34:38.172
01:41:39.259                     : en:01:41:39.259
01:45:57.809                     : en:01:45:57.809


